<mxfile host="app.diagrams.net" modified="2023-07-14T05:58:36.369Z" agent="Mozilla/5.0 (Macintosh; Intel Mac OS X 10_15_7) AppleWebKit/537.36 (KHTML, like Gecko) Chrome/114.0.0.0 Safari/537.36" etag="aEaUIs2TOSmvZJ4j3SOt" version="21.6.2" type="github">
  <diagram name="Page-1" id="wtjIHHhJuDMgVrH0dZI6">
    <mxGraphModel dx="1306" dy="868" grid="1" gridSize="10" guides="1" tooltips="1" connect="1" arrows="1" fold="1" page="1" pageScale="1" pageWidth="827" pageHeight="1169" math="0" shadow="0">
      <root>
        <mxCell id="0" />
        <mxCell id="1" parent="0" />
        <mxCell id="0srPlhrOrfsKFzhWqTFO-1" value="" style="swimlane;startSize=0;" vertex="1" parent="1">
          <mxGeometry x="80" y="180" width="200" height="200" as="geometry" />
        </mxCell>
        <mxCell id="0srPlhrOrfsKFzhWqTFO-2" value="Built in" style="text;html=1;align=center;verticalAlign=middle;resizable=0;points=[];autosize=1;strokeColor=#6c8ebf;fillColor=#dae8fc;" vertex="1" parent="0srPlhrOrfsKFzhWqTFO-1">
          <mxGeometry x="70" y="85" width="60" height="30" as="geometry" />
        </mxCell>
        <mxCell id="0srPlhrOrfsKFzhWqTFO-4" value="" style="swimlane;startSize=0;fillColor=#ffe6cc;strokeColor=#d79b00;" vertex="1" parent="1">
          <mxGeometry x="550" y="190" width="200" height="170" as="geometry" />
        </mxCell>
        <mxCell id="0srPlhrOrfsKFzhWqTFO-5" value="custom" style="text;html=1;align=center;verticalAlign=middle;resizable=0;points=[];autosize=1;strokeColor=#6c8ebf;fillColor=#dae8fc;" vertex="1" parent="0srPlhrOrfsKFzhWqTFO-4">
          <mxGeometry x="70" y="25" width="60" height="30" as="geometry" />
        </mxCell>
        <mxCell id="0srPlhrOrfsKFzhWqTFO-6" value="DATA TYPE" style="text;html=1;align=center;verticalAlign=middle;resizable=0;points=[];autosize=1;strokeColor=#d79b00;fillColor=#ffe6cc;" vertex="1" parent="0srPlhrOrfsKFzhWqTFO-4">
          <mxGeometry x="55" y="85" width="90" height="30" as="geometry" />
        </mxCell>
        <mxCell id="0srPlhrOrfsKFzhWqTFO-7" value="SERVER" style="rhombus;whiteSpace=wrap;html=1;fillColor=#e1d5e7;strokeColor=#9673a6;" vertex="1" parent="1">
          <mxGeometry x="330" y="500" width="136" height="110" as="geometry" />
        </mxCell>
        <mxCell id="0srPlhrOrfsKFzhWqTFO-8" value="UI" style="swimlane;whiteSpace=wrap;html=1;fillColor=#d5e8d4;strokeColor=#82b366;" vertex="1" parent="1">
          <mxGeometry x="314" y="750" width="200" height="200" as="geometry" />
        </mxCell>
        <mxCell id="0srPlhrOrfsKFzhWqTFO-14" value="GET me datatype&lt;br style=&quot;border-color: var(--border-color);&quot;&gt;&lt;span style=&quot;&quot;&gt;== &amp;lt;DATATYPE&amp;gt;&lt;/span&gt;" style="text;html=1;align=center;verticalAlign=middle;resizable=0;points=[];autosize=1;strokeColor=none;fillColor=none;" vertex="1" parent="0srPlhrOrfsKFzhWqTFO-8">
          <mxGeometry x="32" y="50" width="120" height="40" as="geometry" />
        </mxCell>
        <mxCell id="0srPlhrOrfsKFzhWqTFO-15" value="and&amp;nbsp;" style="text;html=1;align=center;verticalAlign=middle;resizable=0;points=[];autosize=1;strokeColor=none;fillColor=none;" vertex="1" parent="0srPlhrOrfsKFzhWqTFO-8">
          <mxGeometry x="67" y="100" width="50" height="30" as="geometry" />
        </mxCell>
        <mxCell id="0srPlhrOrfsKFzhWqTFO-16" value="search BY &amp;lt;SEARCH TEXT&amp;gt;" style="text;html=1;align=center;verticalAlign=middle;resizable=0;points=[];autosize=1;strokeColor=none;fillColor=none;" vertex="1" parent="0srPlhrOrfsKFzhWqTFO-8">
          <mxGeometry x="20" y="140" width="180" height="30" as="geometry" />
        </mxCell>
        <mxCell id="0srPlhrOrfsKFzhWqTFO-10" value="" style="endArrow=classic;startArrow=classic;html=1;rounded=0;exitX=0.425;exitY=-0.02;exitDx=0;exitDy=0;exitPerimeter=0;entryX=0.5;entryY=1;entryDx=0;entryDy=0;" edge="1" parent="1" source="0srPlhrOrfsKFzhWqTFO-18" target="0srPlhrOrfsKFzhWqTFO-7">
          <mxGeometry width="50" height="50" relative="1" as="geometry">
            <mxPoint x="390" y="630" as="sourcePoint" />
            <mxPoint x="440" y="580" as="targetPoint" />
          </mxGeometry>
        </mxCell>
        <mxCell id="0srPlhrOrfsKFzhWqTFO-11" value="" style="shape=flexArrow;endArrow=classic;startArrow=classic;html=1;rounded=0;exitX=0.5;exitY=1;exitDx=0;exitDy=0;" edge="1" parent="1" source="0srPlhrOrfsKFzhWqTFO-4">
          <mxGeometry width="100" height="100" relative="1" as="geometry">
            <mxPoint x="360" y="650" as="sourcePoint" />
            <mxPoint x="460" y="550" as="targetPoint" />
          </mxGeometry>
        </mxCell>
        <mxCell id="0srPlhrOrfsKFzhWqTFO-12" value="" style="shape=flexArrow;endArrow=classic;startArrow=classic;html=1;rounded=0;exitX=0.5;exitY=1;exitDx=0;exitDy=0;" edge="1" parent="1" target="0srPlhrOrfsKFzhWqTFO-7">
          <mxGeometry width="100" height="100" relative="1" as="geometry">
            <mxPoint x="180" y="380" as="sourcePoint" />
            <mxPoint x="-10" y="550" as="targetPoint" />
          </mxGeometry>
        </mxCell>
        <mxCell id="0srPlhrOrfsKFzhWqTFO-13" value="NOT FOUND" style="text;html=1;align=center;verticalAlign=middle;resizable=0;points=[];autosize=1;strokeColor=none;fillColor=none;" vertex="1" parent="1">
          <mxGeometry x="275" y="398" width="90" height="30" as="geometry" />
        </mxCell>
        <mxCell id="0srPlhrOrfsKFzhWqTFO-17" value="LIST OF ITEMS" style="text;html=1;align=center;verticalAlign=middle;resizable=0;points=[];autosize=1;strokeColor=none;fillColor=none;" vertex="1" parent="1">
          <mxGeometry x="575" y="438" width="110" height="30" as="geometry" />
        </mxCell>
        <mxCell id="0srPlhrOrfsKFzhWqTFO-19" value="" style="endArrow=classic;startArrow=classic;html=1;rounded=0;exitX=0.425;exitY=-0.02;exitDx=0;exitDy=0;exitPerimeter=0;entryX=0.425;entryY=1;entryDx=0;entryDy=0;entryPerimeter=0;" edge="1" parent="1" source="0srPlhrOrfsKFzhWqTFO-8" target="0srPlhrOrfsKFzhWqTFO-18">
          <mxGeometry width="50" height="50" relative="1" as="geometry">
            <mxPoint x="399" y="746" as="sourcePoint" />
            <mxPoint x="398" y="610" as="targetPoint" />
          </mxGeometry>
        </mxCell>
        <mxCell id="0srPlhrOrfsKFzhWqTFO-18" value="SO AWAYS GET RESULTS FROM CUSTOM PROVISION BUT NOT FROM BUILT IT." style="text;html=1;align=center;verticalAlign=middle;resizable=0;points=[];autosize=1;strokeColor=none;fillColor=none;" vertex="1" parent="1">
          <mxGeometry x="190" y="660" width="480" height="30" as="geometry" />
        </mxCell>
      </root>
    </mxGraphModel>
  </diagram>
</mxfile>
